<?xml version="1.0" encoding="UTF-8"?>
<svg xmlns="http://www.w3.org/2000/svg" xmlns:xlink="http://www.w3.org/1999/xlink" width="218.87999pt" height="132pt" viewBox="0 0 218.87999 132">
<defs>
<clipPath id="clip-0">
<path clip-rule="nonzero" d="M 18.75 18 L 200.25 18 L 200.25 121.5 L 18.75 121.5 Z M 18.75 18 "/>
</clipPath>
<clipPath id="clip-1">
<path clip-rule="nonzero" d="M 18.75 49 L 200.25 49 L 200.25 121.5 L 18.75 121.5 Z M 18.75 49 "/>
</clipPath>
<clipPath id="clip-2">
<path clip-rule="nonzero" d="M 63 35 L 200.25 35 L 200.25 121.5 L 63 121.5 Z M 63 35 "/>
</clipPath>
<clipPath id="clip-3">
<path clip-rule="nonzero" d="M 93 11.25 L 125 11.25 L 125 31 L 93 31 Z M 93 11.25 "/>
</clipPath>
</defs>
<path fill-rule="nonzero" fill="rgb(0%, 0%, 0%)" fill-opacity="1" d="M 110.390625 40.050781 L 110.929688 40.292969 L 110.6875 40.832031 L 110.148438 40.589844 M 111.46875 40.535156 L 112.007812 40.773438 L 111.765625 41.316406 L 111.226562 41.074219 M 112.546875 41.015625 L 113.089844 41.257812 L 112.847656 41.796875 L 112.308594 41.554688 M 113.628906 41.496094 L 114.167969 41.738281 L 113.925781 42.277344 L 113.386719 42.039062 M 114.707031 41.980469 L 115.246094 42.21875 L 115.007812 42.761719 L 114.464844 42.519531 M 115.789062 42.460938 L 116.328125 42.703125 L 116.085938 43.242188 L 115.546875 43 M 116.867188 42.941406 L 117.40625 43.183594 L 117.164062 43.722656 L 116.625 43.484375 M 117.945312 43.425781 L 118.484375 43.664062 L 118.246094 44.207031 L 117.707031 43.964844 M 119.027344 43.90625 L 119.566406 44.148438 L 119.324219 44.6875 L 118.785156 44.445312 M 120.105469 44.386719 L 120.644531 44.628906 L 120.40625 45.167969 L 119.863281 44.929688 M 121.183594 44.871094 L 121.726562 45.109375 L 121.484375 45.652344 L 120.945312 45.410156 M 122.265625 45.351562 L 122.804688 45.59375 L 122.5625 46.132812 L 122.023438 45.890625 M 123.34375 45.832031 L 123.882812 46.074219 L 123.644531 46.613281 L 123.105469 46.375 M 124.425781 46.316406 L 124.964844 46.558594 L 124.722656 47.097656 L 124.183594 46.855469 M 125.503906 46.796875 L 126.042969 47.039062 L 125.804688 47.578125 L 125.261719 47.335938 M 126.582031 47.28125 L 127.125 47.519531 L 126.882812 48.058594 L 126.34375 47.820312 M 127.664062 47.761719 L 128.203125 48.003906 L 127.960938 48.542969 L 127.421875 48.300781 M 128.742188 48.242188 L 129.28125 48.484375 L 129.042969 49.023438 L 128.503906 48.78125 M 129.824219 48.726562 L 130.363281 48.964844 L 130.121094 49.503906 L 129.582031 49.265625 M 130.902344 49.207031 L 131.441406 49.449219 L 131.203125 49.988281 L 130.660156 49.746094 M 131.980469 49.6875 L 132.523438 49.929688 L 132.28125 50.46875 L 131.742188 50.226562 M 133.0625 50.171875 L 133.601562 50.410156 L 133.359375 50.953125 L 132.820312 50.710938 M 134.140625 50.652344 L 134.679688 50.894531 L 134.441406 51.433594 L 133.898438 51.191406 M 135.222656 51.132812 L 135.761719 51.375 L 135.519531 51.914062 L 134.980469 51.675781 M 136.300781 51.617188 L 136.839844 51.855469 L 136.597656 52.398438 L 136.058594 52.15625 M 137.378906 52.097656 L 137.921875 52.339844 L 137.679688 52.878906 L 137.140625 52.636719 M 138.460938 52.578125 L 139 52.820312 L 138.757812 53.359375 L 138.21875 53.121094 M 139.539062 53.0625 L 140.078125 53.300781 L 139.839844 53.84375 L 139.296875 53.601562 M 140.621094 53.542969 L 141.160156 53.785156 L 140.917969 54.324219 L 140.378906 54.082031 M 141.699219 54.023438 L 142.238281 54.265625 L 141.996094 54.804688 L 141.457031 54.566406 M 142.777344 54.507812 L 143.316406 54.746094 L 143.078125 55.289062 L 142.539062 55.046875 M 143.859375 54.988281 L 144.398438 55.230469 L 144.15625 55.769531 L 143.617188 55.527344 M 144.9375 55.46875 L 145.476562 55.710938 L 145.238281 56.25 L 144.695312 56.011719 M 146.015625 55.953125 L 146.558594 56.195312 L 146.316406 56.734375 L 145.777344 56.492188 M 147.097656 56.433594 L 147.636719 56.675781 L 147.394531 57.214844 L 146.855469 56.972656 M 148.175781 56.917969 L 148.714844 57.15625 L 148.476562 57.695312 L 147.9375 57.457031 M 149.257812 57.398438 L 149.796875 57.640625 L 149.554688 58.179688 L 149.015625 57.9375 M 150.335938 57.878906 L 150.875 58.121094 L 150.636719 58.660156 L 150.09375 58.417969 M 151.414062 58.363281 L 151.957031 58.601562 L 151.714844 59.140625 L 151.175781 58.902344 M 152.496094 58.84375 L 153.035156 59.085938 L 152.792969 59.625 L 152.253906 59.382812 M 153.574219 59.324219 L 154.113281 59.566406 L 153.875 60.105469 L 153.335938 59.863281 M 154.65625 59.808594 L 155.195312 60.046875 L 154.953125 60.589844 L 154.414062 60.347656 M 155.734375 60.289062 L 156.273438 60.53125 L 156.03125 61.070312 L 155.492188 60.828125 M 156.8125 60.769531 L 157.355469 61.011719 L 157.113281 61.550781 L 156.574219 61.3125 M 157.894531 61.253906 L 158.433594 61.492188 L 158.191406 62.035156 L 157.652344 61.792969 M 158.972656 61.734375 L 159.511719 61.976562 L 159.273438 62.515625 L 158.730469 62.273438 M 160.054688 62.214844 L 160.59375 62.457031 L 160.351562 62.996094 L 159.8125 62.757812 M 161.132812 62.699219 L 161.671875 62.9375 L 161.429688 63.480469 L 160.890625 63.238281 M 162.210938 63.179688 L 162.753906 63.421875 L 162.511719 63.960938 L 161.972656 63.71875 M 163.292969 63.660156 L 163.832031 63.902344 L 163.589844 64.441406 L 163.050781 64.203125 M 164.371094 64.144531 L 164.910156 64.382812 L 164.671875 64.925781 L 164.128906 64.683594 M 165.449219 64.625 L 165.992188 64.867188 L 165.75 65.40625 L 165.210938 65.164062 M 166.53125 65.105469 L 167.070312 65.347656 L 166.828125 65.886719 L 166.289062 65.648438 M 167.609375 65.589844 L 168.148438 65.832031 L 167.910156 66.371094 L 167.371094 66.128906 M 168.691406 66.070312 L 169.230469 66.3125 L 168.988281 66.851562 L 168.449219 66.609375 M 169.769531 66.554688 L 170.308594 66.792969 L 170.070312 67.332031 L 169.527344 67.09375 M 170.847656 67.035156 L 171.390625 67.277344 L 171.148438 67.816406 L 170.609375 67.574219 M 171.929688 67.515625 L 172.46875 67.757812 L 172.226562 68.296875 L 171.6875 68.054688 M 173.007812 68 L 173.546875 68.238281 L 173.308594 68.777344 L 172.769531 68.539062 M 174.089844 68.480469 L 174.628906 68.722656 L 174.386719 69.261719 L 173.847656 69.019531 M 175.167969 68.960938 L 175.707031 69.203125 L 175.46875 69.742188 L 174.925781 69.5 M 176.246094 69.445312 L 176.789062 69.683594 L 176.546875 70.226562 L 176.007812 69.984375 M 177.328125 69.925781 L 177.867188 70.167969 L 177.625 70.707031 L 177.085938 70.464844 M 178.40625 70.40625 L 178.945312 70.648438 L 178.707031 71.1875 L 178.167969 70.949219 M 179.488281 70.890625 L 179.503906 70.898438 L 179.265625 71.4375 L 179.246094 71.429688 "/>
<path fill="none" stroke-width="1" stroke-linecap="butt" stroke-linejoin="miter" stroke="rgb(0%, 0%, 0%)" stroke-opacity="1" stroke-miterlimit="10" d="M 458.359028 295.178415 L 451.017618 294.45815 L 456.462552 299.44053 " transform="matrix(0.591146, 0, 0, 0.591146, -156.953108, -134.013011)"/>
<path fill="none" stroke-width="1" stroke-linecap="butt" stroke-linejoin="miter" stroke="rgb(0%, 0%, 0%)" stroke-opacity="1" stroke-miterlimit="10" d="M 562.63877 346.819387 L 569.98018 347.539651 L 564.541854 342.557272 " transform="matrix(0.591146, 0, 0, 0.591146, -156.953108, -134.013011)"/>
<path fill-rule="nonzero" fill="rgb(100%, 100%, 100%)" fill-opacity="1" d="M 107.585938 43.332031 L 180 74.222656 L 180 77.464844 L 107.585938 108.355469 L 35.167969 77.464844 L 35.167969 74.222656 Z M 107.585938 43.332031 "/>
<g clip-path="url(#clip-0)">
<path fill="none" stroke-width="3" stroke-linecap="butt" stroke-linejoin="miter" stroke="rgb(0%, 0%, 0%)" stroke-opacity="1" stroke-miterlimit="10" d="M 447.502199 300.002204 L 570.000004 352.257713 L 570.000004 357.742295 L 447.502199 409.997805 L 324.997787 357.742295 L 324.997787 352.257713 Z M 447.502199 300.002204 " transform="matrix(0.591146, 0, 0, 0.591146, -156.953108, -134.013011)"/>
</g>
<g clip-path="url(#clip-1)">
<path fill="none" stroke-width="3" stroke-linecap="butt" stroke-linejoin="miter" stroke="rgb(0%, 0%, 0%)" stroke-opacity="1" stroke-miterlimit="10" d="M 324.997787 352.257713 L 447.502199 404.533047 L 570.000004 352.257713 M 447.502199 404.533047 L 447.502199 409.997805 " transform="matrix(0.591146, 0, 0, 0.591146, -156.953108, -134.013011)"/>
</g>
<g clip-path="url(#clip-2)">
<path fill="none" stroke-width="4" stroke-linecap="butt" stroke-linejoin="miter" stroke="rgb(0%, 0%, 0%)" stroke-opacity="1" stroke-miterlimit="10" d="M 430.002229 398.002216 L 550.002236 344.002213 " transform="matrix(0.591146, 0, 0, 0.591146, -157.248699, -134.308588)"/>
</g>
<path fill="none" stroke-width="4" stroke-linecap="butt" stroke-linejoin="miter" stroke="rgb(0%, 0%, 0%)" stroke-opacity="1" stroke-miterlimit="10" d="M 431.000027 402.997811 L 431.000027 398.002216 " transform="matrix(0.591146, 0, 0, 0.591146, -157.248699, -134.308588)"/>
<path fill-rule="nonzero" fill="rgb(0%, 0%, 0%)" fill-opacity="1" d="M 110.5 66.984375 L 110.457031 65.210938 L 111.050781 65.195312 L 111.089844 66.96875 M 110.417969 63.4375 L 110.378906 61.664062 L 110.96875 61.652344 L 111.007812 63.425781 M 110.339844 59.890625 L 110.296875 58.117188 L 110.890625 58.105469 L 110.929688 59.878906 M 110.257812 56.34375 L 110.21875 54.574219 L 110.808594 54.558594 L 110.847656 56.332031 M 110.175781 52.800781 L 110.136719 51.027344 L 110.726562 51.011719 L 110.769531 52.785156 M 110.097656 49.253906 L 110.054688 47.480469 L 110.648438 47.46875 L 110.6875 49.238281 M 110.015625 45.707031 L 109.976562 43.933594 L 110.566406 43.921875 L 110.605469 45.695312 M 109.933594 42.160156 L 109.894531 40.386719 L 110.484375 40.375 L 110.527344 42.148438 M 109.855469 38.617188 L 109.816406 36.84375 L 110.40625 36.828125 L 110.445312 38.601562 M 109.773438 35.070312 L 109.734375 33.296875 L 110.324219 33.285156 L 110.367188 35.054688 M 109.695312 31.523438 L 109.652344 29.75 L 110.246094 29.738281 L 110.285156 31.511719 M 109.613281 27.976562 L 109.574219 26.203125 L 110.164062 26.191406 L 110.203125 27.964844 M 109.53125 24.433594 L 109.492188 22.660156 L 110.082031 22.644531 L 110.125 24.417969 M 109.453125 20.886719 L 109.414062 19.113281 L 110.003906 19.097656 L 110.042969 20.871094 M 109.371094 17.339844 L 109.359375 16.734375 L 109.949219 16.722656 L 109.960938 17.328125 "/>
<path fill-rule="nonzero" fill="rgb(0%, 0%, 0%)" fill-opacity="1" stroke-width="1" stroke-linecap="butt" stroke-linejoin="miter" stroke="rgb(0%, 0%, 0%)" stroke-opacity="1" stroke-miterlimit="4" d="M 455.999997 343.000003 C 455.999997 343.396479 455.920702 343.779739 455.76872 344.149783 C 455.616737 344.513219 455.405284 344.837008 455.121143 345.121149 C 454.837002 345.40529 454.513213 345.616744 454.149777 345.768726 C 453.779733 345.920708 453.396473 346.000004 452.999997 346.000004 C 452.603521 346.000004 452.220261 345.920708 451.850217 345.768726 C 451.486781 345.616744 451.162993 345.40529 450.878852 345.121149 C 450.594711 344.837008 450.383257 344.513219 450.231274 344.149783 C 450.079292 343.779739 449.999997 343.396479 449.999997 343.000003 C 449.999997 342.603528 450.079292 342.220268 450.231274 341.850224 C 450.383257 341.486787 450.594711 341.162999 450.878852 340.878858 C 451.162993 340.594717 451.486781 340.383263 451.850217 340.231281 C 452.220261 340.079298 452.603521 340.000003 452.999997 340.000003 C 453.396473 340.000003 453.779733 340.079298 454.149777 340.231281 C 454.513213 340.383263 454.837002 340.594717 455.121143 340.878858 C 455.405284 341.162999 455.616737 341.486787 455.76872 341.850224 C 455.920702 342.220268 455.999997 342.603528 455.999997 343.000003 Z M 455.999997 343.000003 " transform="matrix(0.591146, 0, 0, 0.591146, -156.953108, -134.013011)"/>
<path fill-rule="nonzero" fill="rgb(0%, 0%, 0%)" fill-opacity="1" d="M 110.539062 119.589844 L 110.539062 117.816406 L 111.132812 117.816406 L 111.132812 119.589844 M 110.539062 116.042969 L 110.539062 114.269531 L 111.132812 114.269531 L 111.132812 116.042969 M 110.539062 112.496094 L 110.539062 110.722656 L 111.132812 110.722656 L 111.132812 112.496094 M 110.539062 108.949219 L 110.539062 107.175781 L 111.132812 107.175781 L 111.132812 108.949219 "/>
<path fill-rule="nonzero" fill="rgb(0%, 0%, 0%)" fill-opacity="1" d="M 113.3125 70.339844 L 113.824219 70.636719 L 113.527344 71.144531 L 113.015625 70.851562 M 114.335938 70.929688 L 114.847656 71.226562 L 114.550781 71.738281 L 114.039062 71.441406 M 115.359375 71.523438 L 115.871094 71.820312 L 115.574219 72.332031 L 115.0625 72.035156 M 116.382812 72.117188 L 116.894531 72.414062 L 116.597656 72.925781 L 116.085938 72.628906 M 117.40625 72.707031 L 117.917969 73.003906 L 117.621094 73.515625 L 117.109375 73.21875 M 118.429688 73.300781 L 118.941406 73.597656 L 118.644531 74.109375 L 118.132812 73.8125 M 119.453125 73.894531 L 119.964844 74.191406 L 119.667969 74.703125 L 119.15625 74.40625 M 120.476562 74.484375 L 120.988281 74.78125 L 120.691406 75.292969 L 120.179688 74.996094 M 121.496094 75.078125 L 122.007812 75.375 L 121.714844 75.886719 L 121.203125 75.589844 M 122.519531 75.671875 L 123.03125 75.96875 L 122.738281 76.480469 L 122.226562 76.183594 M 123.542969 76.265625 L 124.054688 76.558594 L 123.757812 77.070312 L 123.246094 76.773438 M 124.566406 76.855469 L 125.078125 77.152344 L 124.78125 77.664062 L 124.269531 77.367188 M 125.589844 77.449219 L 126.101562 77.746094 L 125.804688 78.257812 L 125.292969 77.960938 M 126.613281 78.042969 L 127.125 78.335938 L 126.828125 78.847656 L 126.316406 78.554688 M 127.636719 78.632812 L 128.148438 78.929688 L 127.851562 79.441406 L 127.339844 79.144531 M 128.660156 79.226562 L 129.171875 79.523438 L 128.875 80.035156 L 128.363281 79.738281 M 129.683594 79.820312 L 130.195312 80.113281 L 129.898438 80.625 L 129.386719 80.332031 M 130.707031 80.410156 L 131.21875 80.707031 L 130.921875 81.21875 L 130.410156 80.921875 M 131.730469 81.003906 L 132.242188 81.300781 L 131.945312 81.8125 L 131.433594 81.515625 M 132.753906 81.597656 L 133.265625 81.894531 L 132.96875 82.402344 L 132.457031 82.109375 "/>
<path fill="none" stroke-width="1" stroke-linecap="butt" stroke-linejoin="miter" stroke="rgb(0%, 0%, 0%)" stroke-opacity="1" stroke-miterlimit="10" d="M 463.189425 347.050664 L 455.966958 345.557272 L 460.856826 351.08811 " transform="matrix(0.591146, 0, 0, 0.591146, -156.953108, -134.013011)"/>
<path fill="none" stroke-width="1" stroke-linecap="butt" stroke-linejoin="miter" stroke="rgb(0%, 0%, 0%)" stroke-opacity="1" stroke-miterlimit="10" d="M 484.810572 364.951547 L 492.033039 366.438331 L 487.143171 360.907493 " transform="matrix(0.591146, 0, 0, 0.591146, -156.953108, -134.013011)"/>
<path fill-rule="nonzero" fill="rgb(0%, 0%, 0%)" fill-opacity="1" stroke-width="14.305654" stroke-linecap="butt" stroke-linejoin="miter" stroke="rgb(0%, 0%, 0%)" stroke-opacity="0.1049" stroke-miterlimit="4" d="M 32.864313 156.800649 C 32.864313 224.324081 58.476649 288.122083 108.769965 349.126011 C 159.528959 409.664261 216.807456 440.399065 280.139779 440.864744 C 314.134335 440.864744 343.937781 424.565984 370.015796 391.968465 C 380.72641 411.992655 396.093812 421.771911 416.118002 421.771911 C 424.500221 421.771911 432.416761 419.443517 438.936265 413.855371 C 445.455769 408.732903 449.1812 402.2134 449.1812 393.83118 C 449.1812 385.448961 436.607871 331.895894 411.926892 234.103337 C 387.245914 135.845101 374.672585 80.894997 374.206906 67.855989 C 374.206906 51.55723 376.5353 40.380937 381.192089 34.792791 C 385.848877 29.670324 392.83406 26.876251 402.147637 25.944893 C 408.201462 26.876251 414.720965 29.670324 422.171827 34.792791 C 436.142192 48.297478 449.646879 80.429318 463.151565 131.188312 C 466.876996 144.22732 470.136748 151.212502 472.930821 152.14386 C 474.327857 152.609539 477.587609 153.075218 483.175756 153.075218 L 486.901186 153.075218 C 499.474515 153.075218 505.994019 149.815466 505.994019 144.22732 C 505.994019 140.03621 504.131304 131.188312 500.871552 117.217947 C 497.6118 102.781903 491.092296 85.086106 480.847361 63.199201 C 471.068106 40.846616 460.357492 24.547857 449.1812 12.905886 C 440.333302 4.523666 429.622688 -2.461516 417.04936 -8.049662 C 411.461213 -9.446699 403.544673 -9.912378 392.83406 -9.912378 C 370.481475 -9.912378 351.388643 -4.789911 336.021241 4.989345 C 320.653839 14.768601 310.874583 25.479214 306.217795 36.189828 L 300.16397 51.091551 C 299.232612 51.55723 297.835575 51.55723 295.97286 50.160193 C 294.575824 48.763157 293.178787 47.36612 291.78175 45.969084 C 252.664728 8.714776 212.616347 -9.912378 172.102287 -9.912378 C 135.313659 -9.912378 103.181818 3.12663 74.775409 30.136003 C 46.834678 56.679697 32.864313 99.056472 32.864313 156.800649 Z M 350.922964 328.170463 C 350.922964 331.895894 349.525927 339.346756 345.800496 350.057369 C 342.540744 360.767982 335.089883 372.409953 322.982233 384.983282 C 310.874583 397.556611 295.507181 404.541794 276.880027 405.007473 C 253.596085 405.007473 231.243501 394.762538 209.822274 373.80699 C 188.866726 353.317121 172.102287 326.307748 159.994637 292.778871 C 140.436126 240.157162 126.93144 185.672737 119.014899 128.859918 C 119.014899 126.997202 119.014899 123.271772 119.014899 118.149304 C 119.014899 112.561158 118.54922 108.835728 118.083541 106.041654 C 118.083541 75.77253 124.137366 55.28266 135.779338 44.106368 C 147.886988 32.464397 162.323032 26.876251 179.08747 25.944893 C 204.234128 25.944893 229.380785 37.121185 254.061764 59.008091 C 278.742743 80.894997 293.178787 98.125114 297.835575 110.232764 C 299.232612 112.561158 308.546189 148.418429 324.844948 216.873219 C 341.609387 285.793688 350.457285 322.582317 350.922964 328.170463 Z M 350.922964 328.170463 " transform="matrix(0.00838829, 0, 0, -0.00838829, 173.86495, 55.604352)"/>
<path fill-rule="nonzero" fill="rgb(0%, 0%, 0%)" fill-opacity="1" stroke-width="14.305654" stroke-linecap="butt" stroke-linejoin="miter" stroke="rgb(0%, 0%, 0%)" stroke-opacity="0.1049" stroke-miterlimit="4" d="M 109.172336 429.111936 C 91.010861 429.111936 76.574816 435.165761 65.864203 446.807732 C 55.15359 458.915382 50.031122 473.817105 50.031122 491.047223 C 50.031122 538.546465 67.726918 579.526203 103.118511 613.986438 C 138.510103 648.446672 182.283914 666.142468 234.905624 666.142468 C 295.443873 666.142468 346.202867 647.515314 387.182606 609.795328 C 427.696665 572.54102 448.186534 524.110421 449.117892 464.969207 C 449.117892 436.562798 442.132709 409.087746 429.093702 383.009731 C 415.589015 356.931715 399.755934 334.113452 381.128781 315.020619 C 362.501627 295.462108 335.492254 270.781129 301.032019 240.977683 C 276.81672 220.487814 243.753522 189.75301 200.911068 148.773272 L 141.769855 92.891811 L 218.141185 91.960453 C 322.453246 91.960453 378.334708 93.823168 384.854211 97.08292 C 389.511 98.479957 397.893219 127.817724 409.069511 186.02758 L 409.069511 188.821653 L 449.117892 188.821653 L 449.117892 186.02758 C 448.186534 184.164864 443.995425 153.895739 436.078884 95.220205 C 428.162344 36.54467 423.039877 5.809867 421.177161 3.015794 L 421.177161 0.221721 L 50.031122 0.221721 L 50.031122 30.956524 C 50.031122 35.613313 51.893838 40.73578 56.084947 45.858247 C 59.810378 51.446393 70.055313 63.088365 85.888393 80.784161 C 105.446905 102.205388 122.211343 120.832541 136.181709 137.131301 C 141.769855 143.650805 153.411826 156.224133 170.176264 173.91993 C 186.475024 192.081405 198.116995 204.189054 204.17082 211.174237 C 210.224645 217.693741 219.538222 228.870033 233.042908 243.771756 C 246.547595 259.139158 255.861172 270.781129 260.983639 278.231991 C 266.106106 285.217173 274.022646 295.462108 283.801902 308.035437 C 294.046837 320.608766 301.032019 331.319379 305.223129 340.167277 C 308.94856 348.549496 314.071027 358.328752 320.124852 369.039365 C 326.178677 379.749979 330.369787 390.460592 333.16386 401.171206 C 335.492254 411.881819 337.820648 421.661075 340.149042 430.974652 C 342.011758 440.288229 342.943115 451.464521 342.943115 464.03785 C 342.943115 505.948946 331.766823 542.271896 308.94856 573.006699 C 286.130296 603.741503 253.998456 619.108905 212.08736 619.108905 C 190.200454 619.108905 170.641943 613.520759 153.877505 601.878788 C 137.113066 590.702495 125.471095 579.526203 118.951591 568.81559 C 112.432087 558.104976 109.172336 552.051151 109.172336 550.188436 C 109.172336 549.257078 110.569372 548.791399 113.829124 548.791399 C 125.936774 548.791399 138.510103 544.134611 151.083432 534.821034 C 163.65676 525.507457 170.176264 510.140055 170.176264 489.184507 C 170.176264 472.420069 164.588118 458.449704 153.877505 446.807732 C 143.166891 435.63144 128.265168 429.577615 109.172336 429.111936 Z M 109.172336 429.111936 " transform="matrix(0.00838829, 0, 0, -0.00838829, 173.986574, 67.029204)"/>
<path fill-rule="nonzero" fill="rgb(0%, 0%, 0%)" fill-opacity="1" d="M 173.027344 59.429688 L 179.140625 59.429688 L 179.140625 58.925781 L 173.027344 58.925781 Z M 173.027344 59.429688 "/>
<path fill-rule="nonzero" fill="rgb(0%, 0%, 0%)" fill-opacity="1" stroke-width="14.301534" stroke-linecap="butt" stroke-linejoin="miter" stroke="rgb(0%, 0%, 0%)" stroke-opacity="0.1049" stroke-miterlimit="4" d="M 83.798381 237.036121 C 83.798381 237.036121 83.798381 241.226024 83.798381 250.071373 C 83.798381 258.451178 88.453828 265.434349 98.230267 270.089796 L 679.23007 270.089796 C 689.006509 264.50326 694.127501 257.985634 694.127501 250.071373 C 694.127501 242.157113 689.006509 235.173943 679.23007 230.052951 L 98.230267 230.052951 C 88.453828 234.708398 83.798381 241.226024 83.798381 250.071373 Z M 83.798381 237.036121 " transform="matrix(0.00839071, 0, 0, -0.00839071, 92.214841, 35.856089)"/>
<path fill-rule="nonzero" fill="rgb(0%, 0%, 0%)" fill-opacity="1" stroke-width="14.301534" stroke-linecap="butt" stroke-linejoin="miter" stroke="rgb(0%, 0%, 0%)" stroke-opacity="0.1049" stroke-miterlimit="4" d="M 33.182286 156.933441 C 33.182286 224.437425 58.321701 288.21705 109.066074 349.203408 C 159.810448 409.724221 216.606903 440.450172 279.920984 440.915716 C 313.905748 440.915716 344.166155 424.621651 369.771114 392.033521 C 380.478642 412.051944 395.841618 421.828383 415.860041 421.828383 C 424.70539 421.828383 432.154106 419.50066 439.137276 413.914123 C 445.654902 408.793131 448.913715 401.80996 448.913715 393.8957 C 448.913715 385.515895 436.809553 331.978253 412.135683 234.213863 C 387.461813 135.983929 374.892106 80.584108 373.961017 68.014401 C 373.961017 51.254791 376.28874 40.547263 380.944187 34.960726 C 385.599634 29.839734 392.582805 26.580921 401.893699 26.115376 C 407.945781 26.580921 414.463407 29.839734 421.912122 34.960726 C 435.878463 48.461523 449.844805 80.118563 462.880057 130.862937 C 467.069959 144.363734 470.328772 151.346904 473.122041 151.812449 C 474.518675 152.743539 477.777488 153.209083 482.898479 153.209083 L 487.088382 153.209083 C 499.658089 153.209083 506.175715 149.95027 506.175715 143.898189 C 506.175715 140.173831 504.313536 130.862937 501.054723 116.896596 C 497.79591 102.930254 490.81274 84.77401 481.036301 62.893409 C 470.794317 41.012807 460.552333 24.253198 448.913715 13.080125 C 440.533911 4.234775 429.826382 -2.748396 416.79113 -7.869388 C 411.670138 -9.266022 403.755878 -10.197111 393.04835 -10.197111 C 370.236659 -10.197111 351.149326 -5.076119 335.78635 5.165864 C 320.888919 14.942303 310.646935 25.184287 305.991488 35.891815 L 299.939407 50.789246 C 299.473862 51.720336 298.077228 51.254791 296.215049 49.858157 C 294.818415 48.461523 293.421781 47.530433 292.025147 46.133799 C 252.453846 8.890222 212.882546 -10.197111 171.914611 -10.197111 C 135.136578 -10.197111 103.013993 3.303686 75.08131 29.839734 C 47.148628 56.841328 33.182286 99.205897 33.182286 156.933441 Z M 351.149326 327.788351 C 351.149326 331.978253 349.287147 339.426969 346.028334 350.134497 C 342.769521 360.842026 334.855261 372.480643 323.216643 385.050351 C 311.11248 397.620058 295.749505 404.137684 277.127716 405.068773 C 253.85048 405.068773 231.504334 394.82679 210.089277 373.877278 C 188.67422 353.39331 171.914611 326.391717 159.810448 292.872497 C 140.723115 240.265945 127.222318 185.797213 118.842513 129.000758 C 118.842513 127.138579 118.842513 123.414222 118.842513 117.827685 C 118.842513 112.706693 118.842513 108.516791 117.911424 106.189067 C 117.911424 75.928661 123.963505 55.444693 136.067668 43.806076 C 148.17183 32.633002 162.138172 26.580921 178.897781 26.115376 C 204.502741 26.115376 229.176611 36.822905 253.85048 59.169051 C 278.52435 81.049653 293.421781 97.809262 298.077228 109.913425 C 299.473862 112.706693 308.319212 148.553636 325.078822 216.988709 C 341.838431 285.889327 350.218236 322.667359 351.149326 327.788351 Z M 351.149326 327.788351 " transform="matrix(0.00839071, 0, 0, -0.00839071, 100.588765, 30.18397)"/>
<path fill-rule="nonzero" fill="rgb(0%, 0%, 0%)" fill-opacity="1" stroke-width="14.301534" stroke-linecap="butt" stroke-linejoin="miter" stroke="rgb(0%, 0%, 0%)" stroke-opacity="0.1049" stroke-miterlimit="4" d="M 108.99735 429.093241 C 90.841106 429.093241 76.874765 435.145322 66.167237 446.78394 C 55.459708 458.888103 49.873172 473.785533 49.873172 491.010688 C 49.873172 538.496249 67.563871 579.464183 102.945269 613.914492 C 138.326667 648.830346 182.553415 666.0555 235.159968 666.0555 C 295.68078 666.0555 346.425154 647.433712 386.927544 610.190134 C 427.895479 572.481013 448.379446 524.529907 448.844991 464.940184 C 448.844991 436.541956 442.327365 409.074818 428.826568 383.004314 C 415.791317 356.93381 399.497252 334.122119 380.875463 315.034786 C 362.253674 295.481908 335.717626 270.808038 300.801772 241.013177 C 277.058992 220.529209 243.539772 189.803258 201.175204 148.835323 L 142.051025 92.969958 L 217.934813 92.038868 C 322.682374 92.038868 378.547739 93.435502 385.065365 97.15986 C 389.720813 98.556494 397.635073 127.885811 408.808146 186.0789 L 408.808146 188.872169 L 448.844991 188.872169 L 448.844991 186.0789 C 448.379446 184.216721 444.189544 153.49077 435.809739 94.832136 C 427.895479 36.173503 422.774487 5.447551 420.912308 3.119828 L 420.912308 -0.138985 L 49.873172 -0.138985 L 49.873172 31.052511 C 49.873172 35.707958 52.200895 40.82895 55.925253 45.949942 C 60.115155 51.536478 69.891594 63.175096 86.185659 80.865795 C 105.272993 102.280852 122.032602 120.90264 135.998944 137.196705 C 142.051025 143.714331 153.224098 155.818494 169.983708 173.974738 C 186.743317 192.130982 197.916391 204.235144 203.968472 211.218315 C 210.020553 217.735941 219.796992 228.443469 232.832244 243.806445 C 246.333041 259.16942 255.643935 270.808038 261.230472 277.791209 C 266.351463 285.239924 273.800179 295.481908 284.042163 308.051615 C 293.818602 320.621323 300.801772 331.328851 304.991675 340.174201 C 309.181577 348.554005 313.837024 358.330444 319.889105 369.037973 C 325.941187 379.745501 330.131089 390.45303 332.924357 401.160558 C 335.717626 411.868086 338.045349 421.644525 339.907528 430.95542 C 341.769707 440.266314 343.166341 451.439387 343.166341 464.009094 C 343.166341 505.908119 331.527723 542.220606 309.181577 572.946557 C 286.369886 603.672508 253.781756 619.035484 211.882732 619.035484 C 190.00213 619.035484 170.449252 613.448947 154.155187 601.81033 C 137.395578 590.637256 125.75696 579.464183 118.773789 569.2222 C 112.256163 558.514671 108.99735 551.997045 108.99735 550.134866 C 108.99735 549.203777 110.859529 549.203777 114.118342 549.203777 C 126.222505 549.203777 138.326667 544.54833 150.896374 534.771891 C 163.466082 525.460997 169.983708 510.563566 169.983708 489.148509 C 169.983708 472.388899 164.862716 458.422558 154.155187 446.78394 C 143.447659 435.610867 128.550228 429.558786 108.99735 429.093241 Z M 108.99735 429.093241 " transform="matrix(0.00839071, 0, 0, -0.00839071, 100.710435, 41.612115)"/>
<path fill-rule="nonzero" fill="rgb(0%, 0%, 0%)" fill-opacity="1" d="M 99.75 34.011719 L 105.867188 34.011719 L 105.867188 33.507812 L 99.75 33.507812 Z M 99.75 34.011719 "/>
<g clip-path="url(#clip-3)">
<path fill="none" stroke-width="1" stroke-linecap="butt" stroke-linejoin="miter" stroke="rgb(0%, 0%, 0%)" stroke-opacity="1" stroke-miterlimit="10" d="M 457.143169 259.488985 C 461.861231 260.222466 463.361231 261.55066 460.671804 262.640968 C 457.982376 263.731276 451.903081 264.259911 446.299556 263.883259 C 440.709247 263.499999 437.2533 262.330395 438.138763 261.121144 C 439.030833 259.911893 443.999997 259.013214 449.881054 258.999999 " transform="matrix(0.591146, 0, 0, 0.591146, -156.953108, -134.013011)"/>
</g>
<path fill-rule="nonzero" fill="rgb(0%, 0%, 0%)" fill-opacity="1" stroke-width="14.327628" stroke-linecap="butt" stroke-linejoin="miter" stroke="rgb(0%, 0%, 0%)" stroke-opacity="0.1047" stroke-miterlimit="4" d="M 73.225644 646.831569 C 73.225644 653.827481 74.158432 661.289787 76.956797 670.151276 C 79.755161 678.54637 83.486314 683.210312 89.083044 683.210312 C 89.549438 683.210312 113.801933 684.609494 160.90774 687.874253 C 208.479941 691.139012 232.732436 693.470982 234.131619 693.937377 C 242.060319 693.937377 245.791472 691.139012 245.791472 685.075888 C 245.791472 679.012764 234.598013 631.440563 212.211095 541.89289 C 206.614365 519.505972 201.017635 496.186265 194.954512 471.93377 C 188.891388 448.14767 184.227447 429.958299 180.029899 417.832051 L 175.832352 399.176286 C 175.832352 396.844315 178.164323 397.777104 181.895476 401.974651 C 214.543065 428.559116 248.123443 442.084546 283.103002 442.084546 C 324.145686 442.084546 357.726063 426.69354 382.911346 395.911527 C 408.563024 365.129514 421.155665 326.885196 422.088453 279.779389 C 422.088453 206.089116 395.503988 138.928361 342.801451 79.229912 C 290.565308 19.065069 233.665225 -10.784155 173.033988 -10.784155 C 139.45361 -10.784155 109.137992 1.808487 82.087132 26.99377 C 54.569878 52.179053 40.578054 93.221736 40.11166 150.12182 L 40.11166 158.983309 C 40.11166 172.975133 42.443631 192.563686 48.040361 216.816181 C 53.170696 241.53507 69.494491 307.296642 97.011744 414.100898 C 130.125728 545.157649 146.915916 615.116768 146.915916 623.045469 C 146.915916 630.974169 134.323275 635.63811 109.137992 637.037293 C 105.873233 637.037293 103.074868 637.037293 101.209291 637.037293 L 96.078956 637.037293 C 89.549438 637.037293 84.885497 637.037293 83.01992 637.037293 C 81.154344 637.037293 78.822373 637.970081 76.024008 639.835657 C 73.225644 642.167628 72.292855 644.499599 73.225644 646.831569 Z M 335.805539 325.019619 L 335.805539 331.082743 C 335.805539 380.520521 315.750592 404.773016 275.174302 404.773016 C 263.514449 404.773016 251.854596 402.441045 240.194742 396.844315 C 228.068495 391.71398 216.875036 384.718068 207.080759 375.856579 C 196.820088 367.461485 188.424994 359.532785 180.962688 352.070479 C 173.500382 344.608173 167.437258 337.145867 162.773317 330.149955 L 157.176587 322.221254 L 136.188851 235.93834 C 121.264239 178.571862 113.801933 137.995573 113.801933 114.209472 C 113.801933 82.028277 122.197027 57.775782 138.054428 41.918382 C 148.781493 31.191317 161.840528 26.060981 178.164323 26.060981 C 200.084847 26.060981 222.471765 36.788046 244.858684 57.775782 C 261.648872 73.166789 275.174302 91.822554 284.968579 114.209472 C 295.22925 136.129996 305.956315 171.109556 318.082562 219.148152 C 330.20881 267.186747 335.805539 302.166307 335.805539 325.019619 Z M 335.805539 325.019619 " transform="matrix(0.00837543, 0, 0, -0.00837543, 147.191391, 102.054209)"/>
<path fill-rule="nonzero" fill="rgb(0%, 0%, 0%)" fill-opacity="1" stroke-width="14.311191" stroke-linecap="butt" stroke-linejoin="miter" stroke="rgb(0%, 0%, 0%)" stroke-opacity="0.1048" stroke-miterlimit="4" d="M 365.876389 682.818189 C 366.808107 682.818189 390.56692 684.681625 438.084546 687.942638 C 485.136313 691.203652 509.826844 693.532947 511.224421 693.998806 C 519.144026 693.998806 522.870898 691.203652 522.870898 686.079202 C 522.870898 681.420611 498.646226 580.795051 450.196882 384.20252 C 401.281679 187.144131 376.125289 86.984429 375.193571 82.791697 C 373.795993 79.064825 373.330134 73.940375 373.795993 67.884207 C 373.795993 39.932662 383.113175 25.95689 402.213397 25.95689 C 407.803706 26.888608 414.791592 29.683763 421.779478 34.808212 C 436.22111 48.318126 449.731023 80.462402 462.775077 130.775182 C 466.967809 144.285096 470.228822 151.272982 473.023977 152.2047 C 474.421554 152.670559 477.682568 153.136418 482.807018 153.136418 L 491.192481 153.136418 C 500.975522 153.136418 506.099971 150.341264 506.099971 145.216814 C 506.099971 141.489941 505.168253 136.365491 502.838958 128.911746 C 494.453494 95.835752 484.204595 68.815925 473.023977 47.852267 C 461.843359 27.354467 452.526178 13.844554 445.072432 7.788386 C 437.618687 2.198077 428.301506 -3.392232 417.120888 -8.050823 C 411.530579 -9.4484 403.610974 -9.914259 392.896216 -9.914259 C 370.53498 -9.914259 351.434758 -4.789809 336.061408 4.993232 C 320.688059 14.776272 310.439159 25.491031 305.780568 36.20579 L 300.190259 51.11328 C 299.258541 51.579139 297.860964 51.11328 295.997528 50.181562 C 294.59995 48.783985 293.202373 47.386408 291.804796 45.98883 C 252.672633 8.720104 212.608753 -9.914259 172.079013 -9.914259 C 135.276146 -9.914259 103.13187 3.129795 75.180325 30.149622 C 47.228781 56.703589 32.787149 99.096765 32.787149 156.863291 C 32.787149 189.007567 39.775035 221.617702 52.819089 255.159556 C 66.329003 288.23555 82.168211 317.118813 100.802574 340.877626 C 132.480992 379.07807 163.69355 405.166179 194.906108 420.073669 C 226.118666 434.5153 254.53607 441.969046 280.158319 441.969046 C 317.427045 441.969046 345.37859 427.993273 364.012953 400.041729 C 367.273966 395.848997 369.137403 394.45142 369.137403 395.848997 C 369.603262 398.644152 378.454584 434.98116 396.157229 504.860021 C 413.394015 575.204742 422.711197 612.007609 424.108774 616.200341 C 424.108774 624.585804 421.779478 630.176113 417.120888 632.039549 C 412.462297 633.902985 399.418243 635.766422 377.988725 637.163999 L 357.025067 637.163999 C 352.832335 640.890872 350.968899 643.686026 350.968899 645.083603 C 350.968899 646.481181 351.434758 652.537349 352.832335 664.183825 C 356.559208 676.762021 360.751939 682.818189 365.876389 682.818189 Z M 351.900617 325.970136 C 336.527267 378.612211 311.836736 405.166179 276.897305 405.166179 C 253.604352 405.166179 231.243116 394.45142 209.813598 373.95362 C 188.84994 353.455821 172.079013 326.435995 159.966677 292.894141 C 140.866455 240.252065 126.890683 185.746553 118.971078 128.911746 C 118.971078 127.04831 118.971078 123.321437 118.971078 118.196987 C 118.971078 112.606678 118.505219 108.879806 118.03936 106.084651 C 118.03936 75.803811 124.095528 55.306012 136.207864 44.125394 C 147.854341 32.478917 162.295973 26.888608 179.066899 25.95689 C 214.938048 25.95689 252.206774 50.181562 289.94136 98.165047 L 297.860964 108.879806 Z M 351.900617 325.970136 " transform="matrix(0.00838505, 0, 0, -0.00838505, 90.443828, 110.924681)"/>
<path fill-rule="nonzero" fill="rgb(0%, 0%, 0%)" fill-opacity="1" stroke-width="14.311191" stroke-linecap="butt" stroke-linejoin="miter" stroke="rgb(0%, 0%, 0%)" stroke-opacity="0.1048" stroke-miterlimit="4" d="M 21.040015 286.837973 C 21.505874 289.167268 22.437592 291.496564 22.903451 295.223436 C 23.835169 298.48445 25.232746 305.472336 28.027901 317.118813 C 30.823055 328.299431 34.084069 338.548331 37.810941 347.865512 C 42.003673 357.182694 47.128123 368.363312 53.184291 380.941507 C 58.7746 393.519702 65.762486 403.768601 73.216231 411.222347 C 80.204117 418.210233 89.05544 425.663978 98.838481 433.117723 C 109.08738 440.105609 119.802139 443.366623 131.914475 441.969046 C 151.480556 441.969046 168.251483 437.776314 183.158973 429.85671 C 197.600605 421.937105 207.849505 414.48336 213.905673 407.961333 C 219.961841 401.439306 223.688713 394.45142 225.08629 387.929393 C 226.483868 384.20252 227.415586 381.873225 227.881445 381.873225 C 228.813163 381.873225 231.142458 384.20252 235.801049 388.861111 C 267.945325 423.800542 305.214052 441.037328 347.141369 441.037328 L 349.936523 441.037328 C 382.080799 441.037328 405.839612 427.527414 422.14468 400.041729 C 427.26913 387.463534 430.064284 374.885339 430.064284 362.773003 C 430.064284 343.206921 425.871553 326.901854 417.02023 314.789518 C 408.168908 303.143041 399.783444 295.223436 390.932122 291.962423 C 382.546658 288.701409 374.161195 287.303832 365.775732 287.769691 C 352.731677 287.769691 342.016919 291.496564 334.097314 298.950309 C 326.17771 306.404054 321.984978 316.187095 321.984978 327.833572 C 321.984978 359.977848 340.619341 381.407366 377.888068 392.122124 C 363.446436 400.507588 351.3341 405.166179 342.016919 405.166179 C 304.748193 405.166179 270.274621 380.475648 239.062063 331.094585 C 232.540036 320.379827 227.415586 309.199209 224.154572 298.018591 C 220.893559 286.837973 209.247082 242.115502 190.14686 164.782895 C 167.319765 71.61108 154.275711 22.230017 151.014697 16.173849 C 142.163375 -1.994655 128.187602 -10.845977 108.155662 -10.845977 C 99.30434 -10.845977 92.316453 -8.982541 87.192004 -4.789809 C 81.601695 -1.062936 77.874822 3.129795 76.011386 6.856668 C 74.147949 11.0494 73.216231 14.310413 74.147949 17.105568 C 74.147949 25.491031 87.192004 82.791697 114.21183 189.007567 C 140.765797 295.223436 153.809852 353.92168 153.809852 366.034016 C 153.809852 392.122124 145.424388 405.166179 128.187602 405.166179 C 114.21183 405.166179 102.099494 395.848997 91.850594 377.214634 C 82.067554 358.114412 74.147949 338.082472 68.091781 316.187095 C 62.035613 293.825859 58.308741 282.179382 56.911164 279.850087 C 55.513586 278.45251 50.389137 277.986651 41.071955 277.986651 L 27.096183 277.986651 C 22.903451 282.179382 21.040015 284.974537 21.040015 286.837973 Z M 21.040015 286.837973 " transform="matrix(0.00838505, 0, 0, -0.00838505, 94.804047, 110.924681)"/>
<path fill-rule="nonzero" fill="rgb(0%, 0%, 0%)" fill-opacity="1" stroke-width="14.325832" stroke-linecap="butt" stroke-linejoin="miter" stroke="rgb(0%, 0%, 0%)" stroke-opacity="0.1047" stroke-miterlimit="4" d="M 20.985669 286.811966 C 21.452005 289.143644 22.384676 291.475323 22.851012 295.206008 C 23.783683 298.470358 25.182691 305.465393 27.980705 317.123785 C 30.778719 328.315842 34.043068 338.575227 37.773754 347.90194 C 41.970775 357.228654 47.100468 368.42071 53.162831 381.011774 C 59.225195 393.602837 65.753895 403.862222 73.215266 410.857257 C 80.210301 418.318628 89.070679 425.779999 98.863728 432.775034 C 109.123113 440.236405 119.848834 443.500755 131.973562 442.101748 C 151.55966 442.101748 168.347745 437.904727 182.804151 429.97702 C 197.726893 422.049313 207.986278 414.587943 214.048641 408.059243 C 220.111005 401.530543 223.841691 394.535508 224.774362 388.006809 C 226.173369 383.809788 227.10604 381.944445 228.038712 381.944445 C 228.505047 381.944445 231.303062 384.276123 235.966418 388.93948 C 268.14358 423.44832 304.984099 441.169076 346.95431 441.169076 L 350.21866 441.169076 C 381.929487 441.169076 406.178942 427.179006 422.034355 400.131536 C 427.164048 387.540473 429.962062 374.94941 429.962062 362.824682 C 429.962062 342.772248 425.765041 326.916835 416.904663 314.792107 C 408.51062 303.133715 399.650242 295.206008 390.789865 291.941658 C 382.395822 288.677309 374.00178 287.278302 366.074073 288.210973 C 352.550339 288.210973 341.824618 291.475323 333.896911 298.936694 C 325.969205 306.398065 321.772184 316.191114 321.772184 327.849506 C 321.772184 360.026668 340.891947 381.478109 378.198801 392.20383 C 363.276059 400.597872 351.151332 404.794893 341.824618 404.794893 C 304.517764 404.794893 270.475259 380.545438 239.230768 331.113856 C 232.235733 320.388135 227.10604 309.196079 223.841691 298.004022 C 220.577341 286.811966 209.385285 242.510076 189.799186 165.098353 C 167.415073 71.831217 154.357674 21.933299 151.093324 15.870935 C 142.232946 -1.849821 127.77654 -11.176534 108.190442 -11.176534 C 99.330064 -11.176534 92.335029 -8.844856 87.205336 -5.11417 C 81.609308 -0.917149 77.878623 2.813536 76.01328 7.010557 C 74.147937 11.207578 73.215266 14.471928 74.147937 16.803607 C 74.147937 25.663985 87.205336 83.023273 113.78647 188.881473 C 140.833939 295.206008 153.891339 353.964304 153.891339 366.089032 C 153.891339 392.20383 145.497296 404.794893 127.77654 404.794893 C 113.78647 404.794893 102.128078 395.46818 91.868693 376.814752 C 82.075644 358.161325 74.147937 338.108891 68.085573 316.191114 C 62.023209 293.807001 58.292524 282.148609 56.893517 279.816931 C 55.49451 278.884259 50.364817 277.951588 41.038104 277.951588 L 27.048033 277.951588 C 22.851012 282.148609 20.985669 284.946623 20.985669 286.811966 Z M 20.985669 286.811966 " transform="matrix(0.00837648, 0, 0, -0.00837648, 124.136714, 75.113411)"/>
<path fill-rule="nonzero" fill="rgb(0%, 0%, 0%)" fill-opacity="1" d="M 110.171875 110.53125 L 110.71875 110.304688 L 110.945312 110.851562 L 110.398438 111.078125 M 111.265625 110.078125 L 111.8125 109.851562 L 112.039062 110.398438 L 111.492188 110.625 M 112.355469 109.625 L 112.902344 109.398438 L 113.128906 109.945312 L 112.582031 110.171875 M 113.449219 109.171875 L 113.996094 108.945312 L 114.222656 109.492188 L 113.675781 109.71875 M 114.542969 108.71875 L 115.085938 108.492188 L 115.3125 109.039062 L 114.769531 109.265625 M 115.632812 108.265625 L 116.179688 108.039062 L 116.40625 108.585938 L 115.859375 108.8125 M 116.726562 107.8125 L 117.273438 107.585938 L 117.5 108.132812 L 116.953125 108.359375 M 117.816406 107.363281 L 118.363281 107.136719 L 118.589844 107.679688 L 118.042969 107.90625 M 118.910156 106.910156 L 119.457031 106.683594 L 119.683594 107.226562 L 119.136719 107.453125 M 120.003906 106.457031 L 120.546875 106.230469 L 120.773438 106.777344 L 120.230469 107 M 121.09375 106.003906 L 121.640625 105.777344 L 121.867188 106.324219 L 121.320312 106.550781 M 122.1875 105.550781 L 122.734375 105.324219 L 122.960938 105.871094 L 122.414062 106.097656 M 123.277344 105.097656 L 123.824219 104.871094 L 124.050781 105.417969 L 123.503906 105.644531 M 124.371094 104.644531 L 124.917969 104.417969 L 125.144531 104.964844 L 124.597656 105.191406 M 125.464844 104.191406 L 126.007812 103.964844 L 126.234375 104.511719 L 125.6875 104.738281 M 126.554688 103.738281 L 127.101562 103.511719 L 127.328125 104.058594 L 126.78125 104.285156 M 127.648438 103.285156 L 128.191406 103.058594 L 128.417969 103.605469 L 127.875 103.832031 M 128.738281 102.832031 L 129.285156 102.605469 L 129.511719 103.152344 L 128.964844 103.378906 M 129.832031 102.378906 L 130.378906 102.152344 L 130.605469 102.699219 L 130.058594 102.925781 M 130.921875 101.925781 L 131.46875 101.703125 L 131.695312 102.246094 L 131.148438 102.472656 M 132.015625 101.476562 L 132.5625 101.25 L 132.789062 101.792969 L 132.242188 102.019531 M 133.109375 101.023438 L 133.652344 100.796875 L 133.878906 101.339844 L 133.335938 101.566406 M 134.199219 100.570312 L 134.746094 100.34375 L 134.972656 100.890625 L 134.425781 101.117188 M 135.292969 100.117188 L 135.839844 99.890625 L 136.066406 100.4375 L 135.519531 100.664062 M 136.382812 99.664062 L 136.929688 99.4375 L 137.15625 99.984375 L 136.609375 100.210938 M 137.476562 99.210938 L 138.023438 98.984375 L 138.25 99.53125 L 137.703125 99.757812 M 138.570312 98.757812 L 139.113281 98.53125 L 139.339844 99.078125 L 138.796875 99.304688 M 139.660156 98.304688 L 140.207031 98.078125 L 140.433594 98.625 L 139.886719 98.851562 M 140.753906 97.851562 L 141.300781 97.625 L 141.527344 98.171875 L 140.980469 98.398438 M 141.84375 97.398438 L 142.390625 97.171875 L 142.617188 97.71875 L 142.070312 97.945312 M 142.9375 96.945312 L 143.484375 96.71875 L 143.710938 97.265625 L 143.164062 97.492188 M 144.03125 96.492188 L 144.574219 96.269531 L 144.800781 96.8125 L 144.253906 97.039062 M 145.121094 96.042969 L 145.667969 95.816406 L 145.894531 96.359375 L 145.347656 96.585938 M 146.214844 95.589844 L 146.761719 95.363281 L 146.984375 95.90625 L 146.441406 96.132812 M 147.304688 95.136719 L 147.851562 94.910156 L 148.078125 95.457031 L 147.53125 95.683594 M 148.398438 94.683594 L 148.945312 94.457031 L 149.171875 95.003906 L 148.625 95.230469 M 149.488281 94.230469 L 150.035156 94.003906 L 150.261719 94.550781 L 149.714844 94.777344 M 150.582031 93.777344 L 151.128906 93.550781 L 151.355469 94.097656 L 150.808594 94.324219 M 151.675781 93.324219 L 152.21875 93.097656 L 152.445312 93.644531 L 151.902344 93.871094 M 152.765625 92.871094 L 153.3125 92.644531 L 153.539062 93.191406 L 152.992188 93.417969 M 153.859375 92.417969 L 154.40625 92.191406 L 154.632812 92.738281 L 154.085938 92.964844 M 154.949219 91.964844 L 155.496094 91.738281 L 155.722656 92.285156 L 155.175781 92.511719 M 156.042969 91.511719 L 156.589844 91.285156 L 156.816406 91.832031 L 156.269531 92.058594 M 157.136719 91.058594 L 157.679688 90.832031 L 157.90625 91.378906 L 157.363281 91.605469 M 158.226562 90.609375 L 158.773438 90.382812 L 159 90.925781 L 158.453125 91.152344 M 159.320312 90.15625 L 159.867188 89.929688 L 160.09375 90.472656 L 159.546875 90.699219 M 160.410156 89.703125 L 160.957031 89.476562 L 161.183594 90.023438 L 160.636719 90.246094 M 161.503906 89.25 L 162.050781 89.023438 L 162.277344 89.570312 L 161.730469 89.796875 M 162.597656 88.796875 L 163.140625 88.570312 L 163.367188 89.117188 L 162.820312 89.34375 M 163.6875 88.34375 L 164.234375 88.117188 L 164.460938 88.664062 L 163.914062 88.890625 M 164.78125 87.890625 L 165.328125 87.664062 L 165.550781 88.210938 L 165.007812 88.4375 M 165.871094 87.4375 L 166.417969 87.210938 L 166.644531 87.757812 L 166.097656 87.984375 M 166.964844 86.984375 L 167.511719 86.757812 L 167.738281 87.304688 L 167.191406 87.53125 M 168.054688 86.53125 L 168.601562 86.304688 L 168.828125 86.851562 L 168.28125 87.078125 M 169.148438 86.078125 L 169.695312 85.851562 L 169.921875 86.398438 L 169.375 86.625 M 170.242188 85.625 L 170.785156 85.398438 L 171.011719 85.945312 L 170.46875 86.171875 M 171.332031 85.171875 L 171.878906 84.949219 L 172.105469 85.492188 L 171.558594 85.71875 M 172.425781 84.722656 L 172.972656 84.496094 L 173.199219 85.039062 L 172.652344 85.265625 M 173.515625 84.269531 L 174.0625 84.042969 L 174.289062 84.585938 L 173.742188 84.8125 M 174.609375 83.816406 L 175.15625 83.589844 L 175.382812 84.136719 L 174.835938 84.363281 M 175.703125 83.363281 L 176.246094 83.136719 L 176.472656 83.683594 L 175.929688 83.910156 M 176.792969 82.910156 L 177.339844 82.683594 L 177.566406 83.230469 L 177.019531 83.457031 M 177.886719 82.457031 L 178.433594 82.230469 L 178.660156 82.777344 L 178.113281 83.003906 M 178.976562 82.003906 L 179.523438 81.777344 L 179.75 82.324219 L 179.203125 82.550781 M 180.070312 81.550781 L 180.4375 81.398438 L 180.664062 81.945312 L 180.296875 82.097656 "/>
<path fill="none" stroke-width="1" stroke-linecap="butt" stroke-linejoin="miter" stroke="rgb(0%, 0%, 0%)" stroke-opacity="1" stroke-miterlimit="10" d="M 456.607927 409.740095 L 451.030834 414.570492 L 458.392068 414.048466 " transform="matrix(0.591146, 0, 0, 0.591146, -156.953108, -134.013011)"/>
<path fill="none" stroke-width="1" stroke-linecap="butt" stroke-linejoin="miter" stroke="rgb(0%, 0%, 0%)" stroke-opacity="1" stroke-miterlimit="10" d="M 566.392074 369.259917 L 571.969167 364.42952 L 564.607933 364.951547 " transform="matrix(0.591146, 0, 0, 0.591146, -156.953108, -134.013011)"/>
<path fill-rule="nonzero" fill="rgb(0%, 0%, 0%)" fill-opacity="1" stroke-width="14.31934" stroke-linecap="butt" stroke-linejoin="miter" stroke="rgb(0%, 0%, 0%)" stroke-opacity="0.1048" stroke-miterlimit="4" d="M 34.102315 159.216918 C 34.102315 231.46619 62.535899 297.189721 119.869192 354.989139 C 177.202485 412.788556 239.197022 442.154389 305.852802 442.154389 C 343.142748 442.154389 372.508582 434.230275 393.950301 417.915924 C 415.39202 402.067696 426.11288 381.092101 427.045129 354.989139 C 427.045129 335.878041 420.519388 319.563689 407.934031 306.046083 C 395.348674 292.528478 379.500447 285.536613 359.923224 285.070488 C 347.337867 285.070488 337.549256 288.333359 330.091267 294.859099 C 322.633278 301.850964 318.904283 311.639575 318.904283 325.157181 C 318.904283 338.208663 322.633278 349.861771 330.091267 359.184258 C 337.549256 368.506744 344.541121 375.498609 351.999111 380.159853 C 359.4571 384.821096 364.118343 386.685593 365.982841 386.219469 L 366.915089 386.219469 C 366.915089 387.151718 365.050592 389.482339 360.855473 391.812961 C 357.126478 394.609707 350.134613 397.406453 339.879878 400.203199 C 330.091267 402.533821 318.438159 403.932194 305.852802 403.932194 C 285.809455 403.932194 267.164482 399.27095 248.985633 389.948464 C 235.001903 383.888847 220.552048 373.634112 206.102194 359.184258 C 176.736361 329.818424 155.294642 288.333359 141.777036 235.195185 C 128.725555 181.590886 121.73369 142.902566 120.801441 119.130225 C 120.801441 88.366019 129.657803 65.525927 146.904404 50.143824 C 161.820382 33.829472 180.93148 25.905358 205.169945 25.905358 L 208.89894 25.905358 C 283.478834 25.905358 345.47337 54.338943 393.950301 111.206112 C 400.009917 117.731852 404.205036 120.994723 406.069534 120.994723 C 408.86628 120.994723 413.061399 118.197977 419.121015 112.13836 C 425.180631 106.078744 428.443502 101.417501 428.909626 98.15463 C 429.841875 94.89176 426.579004 89.764392 420.053264 82.772527 C 413.527523 76.246787 403.738912 66.9243 391.153555 54.805067 C 378.102074 43.151959 363.186095 32.897223 345.939494 24.97311 C 328.692894 17.048996 307.251175 8.658758 282.080461 -0.197604 C 256.443622 -8.587842 229.874535 -12.316837 201.907075 -10.918464 C 152.031771 -10.918464 111.478954 4.929763 81.180872 37.092342 C 50.416666 68.788797 34.568439 109.807739 34.102315 159.216918 Z M 34.102315 159.216918 " transform="matrix(0.00838027, 0, 0, -0.00838027, 27.780619, 77.478813)"/>
</svg>
